<svg xmlns="http://www.w3.org/2000/svg" width="100" height="100" viewBox="0 0 100 100"><path d="m38.297-24.749 7.717 7.718a30 30 0 0 1 3.483-4.182 30 30 0 0 1 4.182-3.483l-7.717-7.718zM30.291-5.42V5.421h10.913a30 30 0 0 1 0-10.842zM65.29-40.42v10.913a30 30 0 0 1 10.841 0V-40.42zM38.297 24.75l7.665 7.665 7.717-7.718a30 30 0 0 1-4.182-3.483 30 30 0 0 1-3.483-4.182zm49.445-49.445a30 30 0 0 1 4.182 3.483 30 30 0 0 1 3.483 4.182l7.717-7.718-7.665-7.665zM65.29 29.507V40.42h10.841V29.507a30 30 0 0 1-10.841 0m34.927-34.928a30 30 0 0 1 0 10.842h10.913V-5.421zM87.742 24.696l7.717 7.718 7.665-7.665-7.717-7.718a30 30 0 0 1-3.483 4.182 30 30 0 0 1-4.182 3.483" style="fill:#fff;fill-opacity:1;stroke:#fff;stroke-width:9.1597;stroke-linecap:round;stroke-linejoin:round;stroke-dasharray:none;stroke-opacity:1;paint-order:stroke fill markers" transform="rotate(45)"/><circle cx="50" cy="50" r="26.165" style="fill:none;fill-opacity:1;stroke:#fff;stroke-width:17.6695;stroke-linecap:round;stroke-linejoin:round;stroke-dasharray:none;stroke-opacity:1;paint-order:stroke fill markers"/></svg>