<svg xmlns="http://www.w3.org/2000/svg" xml:space="preserve" width="100" height="100" viewBox="0 0 26.458 26.458"><path d="M12.787.86a2.2 2.2 0 0 0-1.17.565L.465 11.835a1.46 1.46 0 0 0 .996 2.526 1.76 1.76 0 0 1 1.416 2.048v7.167a2.05 2.05 0 0 0 2.048 2.048h5.12v-5.529a1.64 1.64 0 0 1 1.638-1.638h2.867a1.64 1.64 0 0 1 1.638 1.638v5.529h5.12a2.05 2.05 0 0 0 2.047-2.048V16.41a2.05 2.05 0 0 1 2.048-2.048 1.372 1.372 0 0 0 .364-2.527L14.613 1.424A2.2 2.2 0 0 0 12.787.86" style="fill:#fff;stroke-width:1.85208;paint-order:markers stroke fill"/></svg>