<?xml version="1.0" encoding="UTF-8" standalone="no"?>
<!-- Created with Inkscape (http://www.inkscape.org/) -->

<svg width="100" height="100" viewBox="0 0 26.458333 26.458333" version="1.1" id="svg1" xml:space="preserve" inkscape:version="1.4.2 (ebf0e940, 2025-05-08)" sodipodi:docname="home.svg" xmlns:inkscape="http://www.inkscape.org/namespaces/inkscape" xmlns:sodipodi="http://sodipodi.sourceforge.net/DTD/sodipodi-0.dtd" xmlns="http://www.w3.org/2000/svg" xmlns:svg="http://www.w3.org/2000/svg"><sodipodi:namedview id="namedview1" pagecolor="#1b1b1b" bordercolor="#000000" borderopacity="0.25" inkscape:showpageshadow="2" inkscape:pageopacity="0.0" inkscape:pagecheckerboard="0" inkscape:deskcolor="#d1d1d1" inkscape:document-units="px" inkscape:zoom="4.5338852" inkscape:cx="15.549578" inkscape:cy="69.366556" inkscape:window-width="2056" inkscape:window-height="1186" inkscape:window-x="57" inkscape:window-y="31" inkscape:window-maximized="0" inkscape:current-layer="layer1" /><defs id="defs1" /><g inkscape:label="Layer 1" inkscape:groupmode="layer" id="layer1"><path id="rect1" style="fill:#ffffff;stroke-width:1.85208;paint-order:markers stroke fill" d="M 12.787181,0.85905888 A 2.1940113,2.1940113 0 0 0 11.617728,1.4245882 L 0.46392264,11.834486 a 1.4596114,1.4596114 0 0 0 0.99587536,2.526883 1.760561,1.760561 0 0 1 1.4166228,2.047744 v 7.167104 a 2.047744,2.047744 0 0 0 2.0477439,2.047744 h 5.1193603 v -5.528909 a 1.6381951,1.6381951 0 0 1 1.638195,-1.638196 h 2.866841 a 1.6381951,1.6381951 0 0 1 1.638194,1.638196 v 5.528909 h 5.119361 a 2.047744,2.047744 0 0 0 2.047744,-2.047744 v -7.167104 a 2.047744,2.047744 0 0 1 2.047743,-2.047744 1.3719861,1.3719861 0 0 0 0.364755,-2.526883 L 14.612553,1.4245882 A 2.1940113,2.1940113 0 0 0 12.787181,0.85905888 Z" /></g></svg>
