<svg xmlns="http://www.w3.org/2000/svg" width="72" height="72" viewBox="0 0 72 72"><path fill="none" fill-rule="evenodd" d="M8 0a8 8 0 0 0-8 8v56a8 8 0 0 0 8 8h56a8 8 0 0 0 8-8V8a8 8 0 0 0-8-8zm8.35 10c3.507 0 6.347 2.864 6.347 6.396s-2.84 6.399-6.347 6.399S10 19.929 10 16.396 12.842 10 16.35 10m33.033 16.273C56.736 26.273 62 30.764 62 40.051V62H51.316V43.803c0-4.99-1.896-7.778-5.845-7.778-4.296 0-6.541 2.902-6.541 7.778V62H28.633V27.334H38.93v4.668s3.096-5.729 10.453-5.729m-38.35 1.061H21.77V62H11.033z" style="fill:#fdfeff;fill-opacity:1"/></svg>