<svg xmlns="http://www.w3.org/2000/svg" xmlns:xlink="http://www.w3.org/1999/xlink" xml:space="preserve" width="100mm" height="100mm" viewBox="0 0 100 100"><defs><linearGradient id="c"><stop offset="0" style="stop-color:#e7751c;stop-opacity:1"/><stop offset=".5" style="stop-color:#eda63d;stop-opacity:1"/><stop offset="1" style="stop-color:#e7751c;stop-opacity:1"/></linearGradient><linearGradient id="a"><stop offset="0" style="stop-color:#0afda4;stop-opacity:1"/><stop offset="1" style="stop-color:#0ab4fd;stop-opacity:1"/></linearGradient><linearGradient xlink:href="#a" id="f" x1="37.11" x2="62.89" y1="13.858" y2="69.142" gradientTransform="matrix(1.13157 0 0 1.13064 -6.814 -2.4)" gradientUnits="userSpaceOnUse"/><linearGradient xlink:href="#b" id="d" x1="50" x2="50" y1="0" y2="100" gradientUnits="userSpaceOnUse"/><linearGradient id="b"><stop offset="0" style="stop-color:#f057c2;stop-opacity:1"/><stop offset="1" style="stop-color:#ac01f4;stop-opacity:1"/></linearGradient><linearGradient xlink:href="#c" id="e" x1="22.569" x2="77.431" y1="68.408" y2="68.408" gradientTransform="matrix(-1.13157 0 0 1.13064 106.815 -6.549)" gradientUnits="userSpaceOnUse"/></defs><path d="M0 0h100v100H0z" style="fill:url(#d);stroke-width:.264583;paint-order:markers stroke fill"/><path d="M71.602 70.688c-5.923 4.945-13.539 7.927-21.838 7.927-8.182 0-15.7-2.897-21.586-7.716l-7.724 7.396c-1.197 1.146-.84 1.852.808 1.693 11.999-1.154 21.528 2.69 26.975 9.196 1.063 1.27 2.464 1.27 3.527 0 5.446-6.507 14.976-10.35 26.974-9.196 1.649.16 2.005-.547.808-1.693z" style="fill:url(#e);stroke-width:.264583;paint-order:markers stroke fill"/><path d="M49.764 13.43a31.118 31.093 0 0 0-31.118 31.092 31.118 31.093 0 0 0 31.118 31.093 31.118 31.093 0 0 0 31.118-31.093 31.118 31.093 0 0 0-1.252-8.692c-2.797.544-4.318 1.196-5.129 2.015-1.177 1.189-2.065 3.934-2.85 9.976a3.395 3.392 0 0 1-.03.182c-.34 1.842-2.224 3.813-4.466 3.813s-4.181-2.013-4.466-3.935a3.395 3.392 0 0 1-.004-.035c-.83-6.046-1.718-8.72-2.893-9.893-1.176-1.173-3.808-2.025-9.78-2.81l.092.011c-2.04-.21-4.13-2.301-4.13-4.502 0-2.24 2.09-4.27 4.13-4.481l-.024.003c5.958-.66 8.558-1.501 9.74-2.694.997-1.006 1.786-3.146 2.48-7.413a31.118 31.093 0 0 0-12.536-2.638" style="fill:url(#f);stroke-width:6;paint-order:markers stroke fill"/><path fill="#fff" fill-opacity=".85" d="M67.154 48.423c.588 0 1.017-.429 1.13-1.038 1.605-12.352 3.345-14.249 15.593-15.604.633-.067 1.062-.52 1.062-1.129 0-.587-.429-1.038-1.062-1.106C71.63 28.19 69.89 26.294 68.284 13.92c-.113-.61-.542-1.016-1.13-1.016s-1.017.406-1.107 1.016c-1.605 12.374-3.367 14.271-15.593 15.626-.656.068-1.085.52-1.085 1.106 0 .61.43 1.062 1.085 1.13 12.203 1.603 13.898 3.251 15.593 15.603.09.61.52 1.038 1.107 1.038" style="fill:#fff;stroke-width:6;stroke-linejoin:round;paint-order:markers stroke fill"/></svg>