<?xml version="1.0" encoding="UTF-8" standalone="no"?>
<!-- Created with Inkscape (http://www.inkscape.org/) -->

<svg width="100mm" height="100mm" viewBox="0 0 100 100" version="1.1" id="svg1" xml:space="preserve" sodipodi:docname="mage.svg" inkscape:version="1.4.2 (ebf0e940, 2025-05-08)" inkscape:export-filename="mage.svg" inkscape:export-xdpi="260.09601" inkscape:export-ydpi="260.09601" xmlns:inkscape="http://www.inkscape.org/namespaces/inkscape" xmlns:sodipodi="http://sodipodi.sourceforge.net/DTD/sodipodi-0.dtd" xmlns:xlink="http://www.w3.org/1999/xlink" xmlns="http://www.w3.org/2000/svg" xmlns:svg="http://www.w3.org/2000/svg"><sodipodi:namedview id="namedview1" pagecolor="#bfbfbf" bordercolor="#000000" borderopacity="0.25" inkscape:showpageshadow="2" inkscape:pageopacity="0.0" inkscape:pagecheckerboard="0" inkscape:deskcolor="#d1d1d1" inkscape:document-units="mm" showgrid="false" inkscape:zoom="0.74607815" inkscape:cx="150.78849" inkscape:cy="364.57307" inkscape:window-width="1664" inkscape:window-height="1201" inkscape:window-x="67" inkscape:window-y="31" inkscape:window-maximized="0" inkscape:current-layer="layer1"><inkscape:grid id="grid16" units="mm" originx="0" originy="0" spacingx="0.99999999" spacingy="0.99999999" empcolor="#0099e5" empopacity="0.30196078" color="#0099e5" opacity="0.14901961" empspacing="5" enabled="true" visible="false" /><inkscape:page x="0" y="0" width="100" height="100" id="page2" margin="0" bleed="0" /></sodipodi:namedview><defs id="defs1"><linearGradient id="linearGradient12" inkscape:collect="always"><stop style="stop-color:#e7751c;stop-opacity:1" offset="0" id="stop15" /><stop style="stop-color:#eda63d;stop-opacity:1" offset="0.5" id="stop17" /><stop style="stop-color:#e7751c;stop-opacity:1" offset="1" id="stop16" /></linearGradient><linearGradient id="linearGradient13" inkscape:collect="always"><stop style="stop-color:#0afda4;stop-opacity:1" offset="0" id="stop13" /><stop style="stop-color:#0ab4fd;stop-opacity:1" offset="1" id="stop14" /></linearGradient><linearGradient inkscape:collect="always" xlink:href="#linearGradient13" id="linearGradient14" x1="37.110153" y1="13.857623" x2="62.889847" y2="69.142349" gradientUnits="userSpaceOnUse" gradientTransform="matrix(1.1315695,0,0,1.130642,-6.8144415,-2.3998475)" /><linearGradient inkscape:collect="always" xlink:href="#linearGradient1" id="linearGradient2" x1="50" y1="0" x2="50" y2="100" gradientUnits="userSpaceOnUse" /><linearGradient id="linearGradient1" inkscape:collect="always"><stop style="stop-color:#f057c2;stop-opacity:1" offset="0" id="stop2" /><stop style="stop-color:#ac01f4;stop-opacity:1" offset="1" id="stop1" /></linearGradient><linearGradient inkscape:collect="always" xlink:href="#linearGradient12" id="linearGradient3" gradientUnits="userSpaceOnUse" x1="22.568581" y1="68.407921" x2="77.431419" y2="68.407921" gradientTransform="matrix(-1.1315695,0,0,1.130642,106.81479,-6.5487476)" /></defs><g inkscape:label="Layer 1" inkscape:groupmode="layer" id="layer1"><rect style="fill:url(#linearGradient2);stroke-width:0.264583;paint-order:markers stroke fill" id="rect1" width="100" height="100" x="-7.1054274e-15" y="0" inkscape:label="background" /><path d="m 71.602348,70.687675 c -5.922917,4.944877 -13.53888,7.927721 -21.83846,7.927681 -8.181544,4e-5 -15.700138,-2.897596 -21.585763,-7.716841 l -7.724076,7.396964 c -1.196634,1.145965 -0.840746,1.851599 0.808219,1.69292 11.998232,-1.154583 21.52801,2.68895 26.974581,9.195305 1.062694,1.269471 2.464226,1.269475 3.526916,0 5.446497,-6.506308 14.9759,-10.349879 26.974065,-9.195305 1.648964,0.158679 2.004843,-0.546945 0.808219,-1.69292 z" style="fill:url(#linearGradient3);stroke-width:0.264583;paint-order:markers stroke fill" id="path10" inkscape:label="stand" /><path d="M 49.763888,13.429154 A 31.118162,31.092654 0 0 0 18.64589,44.52183 31.118162,31.092654 0 0 0 49.763888,75.614506 31.118162,31.092654 0 0 0 80.882402,44.52183 31.118162,31.092654 0 0 0 79.630282,35.829854 c -2.79745,0.54365 -4.317813,1.195991 -5.128886,2.014864 -1.17779,1.189118 -2.065476,3.934062 -2.850472,9.976652 a 3.3950482,3.3922651 0 0 1 -0.02946,0.181385 c -0.341308,1.842135 -2.224464,3.81372 -4.466394,3.81372 -2.241922,0 -4.181257,-2.013154 -4.466394,-3.93516 a 3.3950482,3.3922651 0 0 1 -0.0041,-0.03566 c -0.829558,-6.045201 -1.717332,-8.719888 -2.892847,-9.892936 -1.175515,-1.173047 -3.807541,-2.02441 -9.780281,-2.809131 l 0.09302,0.01085 c -2.040377,-0.210928 -4.130497,-2.301721 -4.130497,-4.502567 0,-2.239601 2.090174,-4.26991 4.130497,-4.480864 l -0.02429,0.0026 c 5.958256,-0.660231 8.55813,-1.500699 9.739974,-2.693892 0.996587,-1.006159 1.786312,-3.145966 2.480469,-7.412468 A 31.118162,31.092654 0 0 0 49.763888,13.429154 Z" style="fill:url(#linearGradient14);stroke-width:6;paint-order:markers stroke fill" id="path8" inkscape:label="ball" /><path d="m 67.154293,48.423347 c 0.587554,0 1.016823,-0.429156 1.129754,-1.038672 1.604611,-12.351669 3.344829,-14.248421 15.593247,-15.60341 0.632909,-0.06775 1.062193,-0.519334 1.062193,-1.129079 0,-0.587085 -0.429284,-1.038672 -1.062193,-1.106422 -12.248418,-1.354756 -13.988636,-3.25151 -15.593247,-15.625795 -0.112932,-0.609699 -0.5422,-1.016149 -1.129754,-1.016149 -0.587558,0 -1.017035,0.40645 -1.107446,1.016149 -1.604522,12.374285 -3.367212,14.271039 -15.593204,15.625795 -0.65536,0.06775 -1.084746,0.519337 -1.084746,1.106422 0,0.609745 0.429386,1.061329 1.084746,1.129079 12.203383,1.603326 13.898292,3.251741 15.593204,15.60341 0.09043,0.609516 0.519888,1.038672 1.107446,1.038672 z" fill="#ffffff" fill-opacity="0.85" id="path1" style="fill:#ffffff;stroke-width:6;stroke-linejoin:round;paint-order:markers stroke fill" sodipodi:nodetypes="sccsccsccsccs" inkscape:label="sparkle" /></g></svg>
