<svg xmlns="http://www.w3.org/2000/svg" xml:space="preserve" width="100" height="100" viewBox="0 0 26.458 26.458"><g style="stroke-width:1.61349" transform="translate(5.03 -1.122)scale(.61977)"><path d="M13.755 11.244A6.615 6.615 0 0 0 7.14 17.86h13.23v.115-.115a6.615 6.615 0 0 0-6.615-6.615" style="stroke-width:1.61349;fill:#fff;stroke-linecap:round;paint-order:markers stroke fill" transform="translate(-.525 5.296)"/><circle cx="13.229" cy="12.054" r="3.363" style="fill:#fff;stroke-linecap:round;paint-order:markers stroke fill"/></g><path d="M6.65 20.436h13.228M6.58 16.203h13.23" style="fill:none;stroke:#fff;stroke-width:1.85208;paint-order:markers stroke fill" transform="translate(.034 1.126)"/><path d="M22.886 3.454v19.55a2.53 2.53 135 0 1-2.527 2.528H6.099a2.53 2.53 45 0 1-2.527-2.527V3.454A2.53 2.53 135 0 1 6.1.926h14.259a2.53 2.53 45 0 1 2.527 2.528z" style="fill:none;stroke:#fff;stroke-width:1.85199977;paint-order:markers stroke fill"/></svg>